<?xml version="1.0" standalone="no"?>
<!DOCTYPE svg PUBLIC "-//W3C//DTD SVG 20010904//EN"
 "http://www.w3.org/TR/2001/REC-SVG-20010904/DTD/svg10.dtd">
<svg version="1.0" xmlns="http://www.w3.org/2000/svg"
 width="213.000000pt" height="213.000000pt" viewBox="0 0 213.000000 213.000000"
 preserveAspectRatio="xMidYMid meet">
<metadata>
Created by potrace 1.14, written by Peter Selinger 2001-2017
</metadata>
<g transform="translate(0.000000,213.000000) scale(0.100000,-0.100000)"
fill="#000000" stroke="none">
<path d="M1210 2007 c0 -13 -6 -31 -13 -42 -12 -16 -30 -18 -157 -18 -127 0
-145 2 -157 18 -7 11 -13 27 -13 37 0 10 -3 18 -8 18 -21 0 -165 -45 -229 -72
l-73 -30 16 -28 c24 -39 12 -70 -38 -102 -24 -15 -70 -54 -103 -87 -33 -34
-64 -61 -70 -61 -6 0 -26 11 -45 25 l-34 25 -23 -27 c-12 -16 -41 -63 -63
-105 -31 -58 -37 -78 -26 -78 24 0 64 -21 70 -37 3 -7 -1 -39 -9 -70 -8 -32
-15 -90 -15 -130 0 -86 -18 -113 -75 -113 -34 0 -35 -1 -35 -39 0 -60 26 -184
53 -251 102 -252 335 -441 642 -521 103 -27 310 -36 426 -20 335 48 625 256
740 531 33 77 61 228 57 298 l-3 47 -40 3 c-57 5 -75 25 -75 86 0 27 -10 89
-21 138 -24 97 -21 112 32 123 16 4 29 10 29 15 0 15 -98 155 -129 184 l-31
30 -28 -27 c-15 -15 -35 -27 -44 -27 -9 0 -36 19 -60 42 -24 23 -73 61 -110
85 -70 44 -80 62 -58 103 9 17 5 22 -27 36 -39 16 -150 46 -215 58 -35 6 -38
5 -38 -17z m-140 -147 c0 -27 -3 -30 -34 -30 -26 0 -35 5 -39 22 -7 26 7 38
46 38 23 0 27 -4 27 -30z m142 -9 c-3 -31 -1 -30 -39 -24 -27 4 -33 10 -33 30
0 22 4 24 38 21 33 -3 37 -6 34 -27z m-284 -8 c2 -14 -2 -23 -10 -23 -7 0 -23
-3 -35 -6 -16 -4 -23 0 -28 16 -9 27 9 41 45 38 17 -2 26 -10 28 -25z m401 6
c31 -11 37 -23 22 -47 -10 -16 -60 -6 -68 14 -5 13 2 44 10 44 2 0 18 -5 36
-11z m-539 -49 c0 -9 -14 -21 -30 -27 -26 -10 -32 -9 -40 7 -15 27 -13 30 22
45 35 14 48 7 48 -25z m707 -24 c2 -1 -4 -12 -13 -24 -14 -21 -17 -21 -45 -7
-33 17 -33 19 -19 46 10 18 12 18 43 3 18 -9 33 -17 34 -18z m-838 -25 c9 -15
6 -22 -14 -35 -32 -21 -42 -20 -54 3 -8 15 -6 22 12 34 30 21 44 21 56 -2z
m929 -37 c25 -17 28 -36 9 -52 -10 -8 -20 -5 -42 12 -25 20 -28 26 -16 40 17
20 21 20 49 0z m-1038 -64 c0 -4 -10 -16 -23 -28 l-24 -22 -19 21 c-19 21 -19
21 10 46 28 24 30 24 43 7 7 -10 13 -21 13 -24z m1160 -66 c0 -7 -8 -18 -18
-23 -15 -8 -23 -5 -40 18 -19 26 -19 29 -4 44 15 15 18 15 39 -5 13 -12 23
-27 23 -34z m-1250 -33 c0 -5 -8 -19 -18 -31 -13 -17 -24 -21 -40 -16 -27 9
-27 16 -1 50 17 21 24 24 40 16 10 -6 19 -15 19 -19z m1315 -61 c18 -34 15
-45 -14 -53 -15 -3 -23 3 -32 25 -11 27 -10 32 6 44 24 18 22 19 40 -16z
m-1396 -49 c17 -11 5 -71 -14 -71 -36 0 -43 10 -32 46 11 35 21 41 46 25z
m1445 -93 c6 -32 -4 -48 -31 -48 -15 0 -28 43 -19 65 10 28 43 17 50 -17z
m-1469 -78 c0 -26 -5 -36 -19 -38 -27 -6 -39 12 -31 48 5 25 11 31 28 28 18
-2 22 -10 22 -38z m1478 -42 c-2 -5 -3 -21 -3 -38 0 -25 -4 -30 -25 -30 -22 0
-25 4 -25 33 0 19 3 37 7 41 9 9 49 3 46 -6z m-1468 -88 c8 -35 0 -50 -25 -50
-24 0 -39 58 -19 71 25 16 37 10 44 -21z m1435 -50 c11 -7 12 -15 5 -36 -11
-31 -24 -38 -44 -25 -9 6 -11 18 -6 40 7 32 19 38 45 21z m-1380 -107 c0 -7
-9 -17 -20 -23 -16 -9 -22 -6 -35 19 -19 39 -19 40 8 50 17 7 25 4 34 -13 7
-11 12 -26 13 -33z m1533 -2 c38 -15 35 -45 -12 -139 -49 -98 -109 -172 -138
-172 -29 0 -83 47 -83 71 0 11 18 43 39 72 22 29 53 83 70 121 31 67 32 68 64
63 17 -3 44 -10 60 -16z m-203 -35 c0 -8 -8 -23 -17 -35 -16 -19 -20 -20 -37
-8 -18 14 -18 15 -1 45 15 25 22 29 37 21 10 -5 18 -16 18 -23z m-1391 -64
c16 -32 50 -81 75 -109 28 -31 46 -60 46 -75 0 -39 -55 -83 -97 -79 -31 3
-173 217 -173 262 0 24 55 59 92 59 24 0 32 -9 57 -58z m122 16 c23 -29 24
-44 2 -56 -12 -7 -22 -3 -39 17 -21 24 -21 27 -7 44 20 22 21 22 44 -5z m1162
-90 c-25 -26 -28 -27 -45 -11 -18 16 -17 17 9 45 25 26 28 27 45 11 18 -16 17
-17 -9 -45z m-1043 -49 c-14 -25 -28 -24 -57 3 -21 20 -22 23 -7 39 16 18 18
18 45 -2 24 -17 27 -24 19 -40z m950 -9 c9 -16 6 -22 -22 -36 -30 -15 -32 -15
-45 2 -12 16 -11 21 9 36 30 23 45 22 58 -2z m-850 -25 c34 -17 34 -19 20 -45
-10 -18 -12 -19 -44 -3 -31 14 -33 18 -24 39 13 28 11 28 48 9z m723 -46 c4
-16 -1 -23 -26 -32 -18 -6 -34 -11 -36 -11 -2 -1 -7 9 -12 22 -7 19 -4 24 24
36 37 15 43 14 50 -15z m-589 -9 c26 -10 32 -25 18 -48 -6 -9 -16 -10 -40 -1
-33 11 -36 16 -26 43 7 19 14 19 48 6z m451 -31 c8 -25 -8 -39 -47 -39 -23 0
-28 4 -28 24 0 23 9 29 57 35 6 0 15 -9 18 -20z m-304 1 c14 0 19 -7 19 -25 0
-22 -4 -25 -40 -25 -28 0 -40 4 -40 14 0 28 13 47 27 42 8 -3 23 -6 34 -6z
m157 -27 c-2 -23 -8 -29 -35 -31 -31 -3 -33 -1 -33 27 0 29 3 31 36 31 33 0
35 -2 32 -27z m-396 -14 c23 -12 80 -29 127 -38 l86 -17 0 -58 c0 -77 -11 -84
-106 -68 -80 14 -218 67 -226 88 -12 33 33 114 63 114 8 0 34 -10 56 -21z
m766 -26 c14 -25 21 -51 17 -62 -12 -38 -201 -104 -282 -99 l-48 3 -9 48 c-12
61 -1 74 85 92 35 7 89 24 119 38 73 34 90 31 118 -20z"/>
</g>
</svg>
