<?xml version="1.0" encoding="UTF-8"?>
<svg width="1200px" height="1200px" viewBox="0 0 1200 1200" version="1.1" xmlns="http://www.w3.org/2000/svg" xmlns:xlink="http://www.w3.org/1999/xlink">
    <title>Heads_Coin</title>
    <defs>
        <linearGradient x1="50%" y1="0%" x2="68.832273%" y2="100%" id="linearGradient-1">
            <stop stop-color="#08CE78" offset="0%"></stop>
            <stop stop-color="#07A05E" offset="100%"></stop>
        </linearGradient>
        <path d="M527.845084,894.617494 C736.378336,894.617494 905.427938,725.484726 905.427938,516.848884 C905.427938,308.213042 736.378336,139.080274 527.845084,139.080274 C319.311832,139.080274 150.26223,308.213042 150.26223,516.848884 C150.26223,725.484726 319.311832,894.617494 527.845084,894.617494 Z" id="path-2"></path>
        <mask id="mask-3" maskContentUnits="userSpaceOnUse" maskUnits="objectBoundingBox" x="0" y="0" width="755.165709" height="755.53722" fill="white">
            <use xlink:href="#path-2"></use>
        </mask>
    </defs>
    <g id="Heads_Coin" stroke="none" stroke-width="1" fill="none" fill-rule="evenodd">
        <g id="Heads_Token" transform="translate(71.000000, 78.000000)">
            <g id="Group-9">
                <ellipse id="Oval" fill="url(#linearGradient-1)" cx="535.822186" cy="519.509226" rx="502.557461" ry="502.804699"></ellipse>
                <use id="Oval" stroke="#40EDA2" mask="url(#mask-3)" stroke-width="53.3878684" stroke-dasharray="42.71029872836664,42.71029872836664" xlink:href="#path-2"></use>
                <g id="Group-8" fill="#ECF8FC">
                    <path d="M453.344529,83.3424687 C472.89683,78.9058206 494.77938,76.6874965 518.992182,76.6874965 C543.144033,76.6874965 565.07618,78.8946662 584.788625,83.3090057 C596.297778,85.8859656 607.716681,78.6447599 610.293406,67.1355546 C610.350897,66.8787679 610.403636,66.6209405 610.451422,66.3621721 L616.973462,31.1864288 C619.121977,19.5896533 611.461861,8.44743482 599.864934,6.29973907 C599.645714,6.25914066 599.425873,6.22197771 599.205413,6.18875982 C572.252271,2.06291994 545.514528,0 518.992182,0 C491.89516,0 464.573304,3.33504288 437.026615,10.0051286 C425.836512,12.716092 418.80976,23.8098483 421.141205,35.0851351 L427.706118,66.8388022 C430.092851,78.3889028 441.391088,85.8169751 452.941124,83.4299304 C453.075872,83.402082 453.210348,83.3729319 453.344529,83.3424687 Z" id="Path-2"></path>
                    <path d="M150.196317,205.718323 C169.753838,201.277851 191.641562,199.054666 215.859491,199.048768 C240.02123,199.042884 261.961382,201.245116 281.679945,205.655464 C293.189579,208.230272 304.607484,200.987492 307.182622,189.477931 C307.239445,189.223959 307.291621,188.968969 307.338813,188.713032 L313.869,153.552825 C316.022384,141.956953 308.367605,130.811068 296.771707,128.65782 C296.54714,128.61612 296.321918,128.578025 296.096096,128.543767 C269.1419,124.426462 242.402589,122.371035 215.878162,122.377487 C188.771296,122.384097 161.438669,125.726105 133.880281,132.403512 C122.693417,135.115775 115.668738,146.206195 117.997923,157.479047 L124.554633,189.215381 C126.941965,200.765358 138.240199,208.193434 149.790236,205.806393 C149.92588,205.778359 150.061248,205.749007 150.196317,205.718323 Z" id="Path-2" transform="translate(215.875075, 167.011411) rotate(-41.000000) translate(-215.875075, -167.011411) "></path>
                    <path d="M-4.05733229,487.699258 C15.5084204,483.260847 37.4065228,481.040623 61.6369749,481.038586 C85.8074665,481.036553 107.755702,483.242124 127.481682,487.6553 C138.991256,490.230378 150.409167,482.987608 152.984316,471.47805 C153.041333,471.223214 153.093671,470.967354 153.14072,470.710491 L159.665236,435.570329 C161.816566,423.974076 154.159114,412.830026 142.562701,410.679558 C142.341545,410.638546 142.119756,410.601031 141.897392,410.567177 C114.930726,406.445268 88.1794031,404.385428 61.6434235,404.387659 C34.5314194,404.38994 7.19415976,407.726196 -20.3683553,414.396429 C-31.5585798,417.105662 -38.5864355,428.198246 -36.2553269,439.473308 L-29.6918157,471.202268 C-27.3006071,482.751443 -15.9999462,490.175826 -4.45068995,487.785011 C-4.31927315,487.757806 -4.18811572,487.729363 -4.05733229,487.699258 Z" id="Path-2" transform="translate(61.642357, 449.002829) rotate(-80.000000) translate(-61.642357, -449.002829) "></path>
                </g>
                <g id="Group-8" transform="translate(887.980254, 454.028567) scale(-1, 1) translate(-887.980254, -454.028567) translate(718.960508, 50.480831)" fill="#ECF8FC">
                    <path d="M166.15061,139.275671 C185.70813,134.8352 207.595855,132.612015 231.813783,132.606117 C255.975523,132.600233 277.915674,134.802464 297.634238,139.212812 C309.143889,141.787545 320.561714,134.54464 323.136726,123.035052 C323.19353,122.781153 323.24569,122.526237 323.2929,122.27038 L329.822772,87.1101735 C331.976122,75.5142949 324.321342,64.3684102 312.725444,62.2151625 C312.500914,62.1734693 312.275729,62.1353805 312.049946,62.101115 C285.096045,57.9838103 258.356881,55.9283837 231.832454,55.9348354 C204.725589,55.941445 177.392962,59.2834534 149.834573,65.9608607 C138.647709,68.6731229 131.623031,79.7635434 133.952215,91.0363953 L140.508926,122.772729 C142.896257,134.322706 154.194491,141.750782 165.744528,139.363741 C165.880172,139.335707 166.01554,139.306355 166.15061,139.275671 Z" id="Path-2" transform="translate(231.829012, 100.568759) rotate(-41.000000) translate(-231.829012, -100.568759) "></path>
                    <path d="M-4.05733229,421.256373 C15.5084204,416.817962 37.4065228,414.597738 61.6369749,414.595701 C85.8074665,414.593668 107.755702,416.799239 127.481682,421.212415 C138.991256,423.787493 150.409167,416.544723 152.984316,405.035165 C153.041333,404.780329 153.093671,404.524469 153.14072,404.267606 L159.665236,369.127444 C161.816566,357.531191 154.159114,346.387141 142.562701,344.236673 C142.341545,344.195661 142.119756,344.158146 141.897392,344.124292 C114.930726,340.002383 88.1794031,337.942543 61.6434235,337.944774 C34.5314194,337.947055 7.19415976,341.283311 -20.3683553,347.953544 C-31.5585798,350.662777 -38.5864355,361.755361 -36.2553269,373.030423 L-29.6918157,404.759383 C-27.3006071,416.308558 -15.9999462,423.732941 -4.45068995,421.342126 C-4.31927315,421.314921 -4.18811572,421.286478 -4.05733229,421.256373 Z" id="Path-2" transform="translate(61.642357, 382.559944) rotate(-80.000000) translate(-61.642357, -382.559944) "></path>
                    <path d="M43.8369336,735.159929 C63.4002245,730.726271 85.2965765,728.512022 109.52599,728.517181 C133.688784,728.522327 155.631153,730.733726 175.353097,735.151379 C186.862016,737.729382 198.281739,730.489469 200.859767,718.980556 C200.91742,718.723183 200.970299,718.464765 201.01857,718.205469 L207.53194,683.063445 C209.681069,671.466783 202.022216,660.323696 190.425532,658.174686 C190.206406,658.13408 189.986658,658.096905 189.766326,658.063449 C162.798121,653.93211 136.045899,651.863613 109.509661,651.857959 C82.4062945,651.852191 55.0787815,655.179289 27.5271224,661.839251 C16.3297286,664.546324 9.29755623,675.646744 11.6337838,686.927343 L18.2060136,718.661686 C20.5963553,730.21104 31.8969717,737.635491 43.4462423,735.244745 C43.5767428,735.217731 43.7069876,735.189496 43.8369336,735.159929 Z" id="Path-2" transform="translate(109.512361, 696.483601) rotate(-120.000000) translate(-109.512361, -696.483601) "></path>
                </g>
                <g id="Group-8" transform="translate(419.477587, 829.282275) scale(1, -1) rotate(25.000000) translate(-419.477587, -829.282275) translate(119.622927, 546.836864)" fill="#ECF8FC">
                    <path d="M432.14257,83.3424687 C451.694871,78.9058206 473.577422,76.6874965 497.790223,76.6874965 C521.942074,76.6874965 543.874222,78.8946662 563.586667,83.3090057 C575.095819,85.8859656 586.514722,78.6447599 589.091448,67.1355546 C589.148938,66.8787679 589.201677,66.6209405 589.249463,66.3621721 L595.771503,31.1864288 C597.920018,19.5896533 590.259902,8.44743482 578.662975,6.29973907 C578.443756,6.25914066 578.223914,6.22197771 578.003455,6.18875982 C551.050313,2.06291994 524.312569,-5.38892633e-13 497.790223,-5.38892633e-13 C470.693201,-5.38892633e-13 443.371346,3.33504288 415.824656,10.0051286 C404.634553,12.716092 397.607802,23.8098483 399.939246,35.0851351 L406.504159,66.8388022 C408.890893,78.3889028 420.189129,85.8169751 431.739165,83.4299304 C431.873913,83.402082 432.008389,83.3729319 432.14257,83.3424687 Z" id="Path-2"></path>
                    <path d="M143.128998,210.865442 C162.686518,206.42497 184.574243,204.201785 208.792171,204.195887 C232.953911,204.190003 254.894062,206.392235 274.612626,210.802582 C286.12226,213.377391 297.540164,206.13461 300.115302,194.62505 C300.172126,194.371078 300.224302,194.116088 300.271493,193.860151 L306.80168,158.699944 C308.955065,147.104072 301.300285,135.958187 289.704388,133.804938 C289.47982,133.763238 289.254598,133.725144 289.028776,133.690886 C262.07458,129.573581 235.335269,127.518154 208.810842,127.524606 C181.703977,127.531216 154.37135,130.873224 126.812961,137.550631 C115.626097,140.262893 108.601419,151.353314 110.930604,162.626166 L117.487314,194.3625 C119.874645,205.912477 131.172879,213.340553 142.722916,210.953511 C142.85856,210.925478 142.993928,210.896125 143.128998,210.865442 Z" id="Path-2" transform="translate(208.807755, 172.158530) rotate(-41.000000) translate(-208.807755, -172.158530) "></path>
                    <path d="M-4.05733229,495.419936 C15.5084204,490.981525 37.4065228,488.761301 61.6369749,488.759264 C85.8074665,488.757231 107.755702,490.962803 127.481682,495.375978 C138.991256,497.951056 150.409167,490.708287 152.984316,479.198729 C153.041333,478.943893 153.093671,478.688033 153.14072,478.431169 L159.665236,443.291008 C161.816566,431.694754 154.159114,420.550704 142.562701,418.400236 C142.341545,418.359225 142.119756,418.32171 141.897392,418.287855 C114.930726,414.165946 88.1794031,412.106107 61.6434235,412.108337 C34.5314194,412.110618 7.19415976,415.446875 -20.3683553,422.117107 C-31.5585798,424.826341 -38.5864355,435.918925 -36.2553269,447.193986 L-29.6918157,478.922946 C-27.3006071,490.472121 -15.9999462,497.896504 -4.45068995,495.505689 C-4.31927315,495.478484 -4.18811572,495.450042 -4.05733229,495.419936 Z" id="Path-2" transform="translate(61.642357, 456.723507) rotate(-80.000000) translate(-61.642357, -456.723507) "></path>
                </g>
            </g>
            <ellipse id="Oval" stroke="#FFFFFF" stroke-width="47.5597961" cx="528.5" cy="514.612669" rx="152.384398" ry="152.271805"></ellipse>
        </g>
    </g>
</svg>