<?xml version="1.0" encoding="UTF-8"?>
<svg width="1200px" height="1200px" viewBox="0 0 1200 1200" version="1.1" xmlns="http://www.w3.org/2000/svg" xmlns:xlink="http://www.w3.org/1999/xlink">
    <title>Random_coin</title>
    <defs>
        <linearGradient x1="50%" y1="0%" x2="50%" y2="100%" id="linearGradient-1">
            <stop stop-color="#EC9A01" offset="0%"></stop>
            <stop stop-color="#E86D01" offset="100%"></stop>
        </linearGradient>
        <filter x="-17.2%" y="-17.2%" width="134.4%" height="134.4%" filterUnits="objectBoundingBox" id="filter-2">
            <feGaussianBlur stdDeviation="58.9120881" in="SourceGraphic"></feGaussianBlur>
        </filter>
        <linearGradient x1="50%" y1="0%" x2="50%" y2="100%" id="linearGradient-3">
            <stop stop-color="#EC9A01" offset="0%"></stop>
            <stop stop-color="#E86D01" offset="100%"></stop>
        </linearGradient>
        <path d="M521.255369,872.444708 C724.573234,872.444708 889.394929,707.503838 889.394929,504.038963 C889.394929,300.574088 724.573234,135.633218 521.255369,135.633218 C317.937504,135.633218 153.115809,300.574088 153.115809,504.038963 C153.115809,707.503838 317.937504,872.444708 521.255369,872.444708 Z" id="path-4"></path>
        <mask id="mask-5" maskContentUnits="userSpaceOnUse" maskUnits="objectBoundingBox" x="0" y="0" width="736.279121" height="736.81149" fill="white">
            <use xlink:href="#path-4"></use>
        </mask>
        <path d="M0,0 C21.6751655,66.2734485 53.7868612,99.4101727 96.3350871,99.4101727 C138.883313,99.4101727 170.995009,66.2734485 192.670174,0 L0,0 Z" id="path-6"></path>
    </defs>
    <g id="Random_coin" stroke="none" stroke-width="1" fill="none" fill-rule="evenodd">
        <g id="Random_Token" transform="translate(71.000000, 91.000000)">
            <ellipse id="Oval" fill="url(#linearGradient-1)" filter="url(#filter-2)" cx="526.955647" cy="513.619226" rx="513.194252" ry="513.619226"></ellipse>
            <g id="Group-13" transform="translate(0.000000, 0.076230)">
                <g id="Group-9">
                    <ellipse id="Oval" fill="url(#linearGradient-3)" cx="529.032965" cy="506.633369" rx="489.98857" ry="490.342858"></ellipse>
                    <use id="Oval" stroke="#FFC269" mask="url(#mask-5)" stroke-width="51.9186435" stroke-dasharray="41.53491679014738,41.53491679014738" xlink:href="#path-4"></use>
                    <g id="Group-8" fill="#FFFFFF">
                        <path d="M441.963985,81.2877505 C461.039465,76.9537991 482.390731,74.7868234 506.017783,74.7868234 C529.585408,74.7868234 550.985202,76.9429121 570.217165,81.2550895 C581.408927,83.7640823 592.515413,76.7250385 595.024135,65.533216 C595.080632,65.2811738 595.132421,65.0280996 595.179138,64.7740625 L601.559066,30.3568301 C603.64923,19.0793394 596.201266,8.24282681 584.923744,6.15283311 C584.711695,6.1135354 584.499047,6.0775431 584.2859,6.04471803 C557.986192,2.01490601 531.896819,0 506.017783,0 C479.580444,0 452.923595,3.25682074 426.047237,9.77046221 C415.1683,12.4071375 408.336535,23.1916234 410.601323,34.1540157 L417.027492,65.243772 C419.351608,76.475382 430.340368,83.6968298 441.572083,81.373222 C441.70302,81.346134 441.833691,81.3177821 441.963985,81.2877505 Z" id="Path-2"></path>
                        <path d="M146.389249,200.631139 C165.472216,196.291706 186.830902,194.11776 210.465306,194.109301 C234.048939,194.100861 255.461699,196.250201 274.703585,200.557323 C285.896341,203.061879 296.999862,196.01816 299.503872,184.825282 C299.558738,184.580032 299.609148,184.333805 299.654483,184.086614 L306.04871,149.677801 C308.142878,138.401053 300.698266,127.562237 289.421391,125.468756 C289.203447,125.428296 288.984869,125.391328 288.76572,125.358008 C262.464908,121.340559 236.373688,119.336458 210.492061,119.345704 C184.040489,119.355188 157.367735,122.62203 130.473799,129.146231 C119.599448,131.78453 112.770919,142.564403 115.03254,153.52329 L121.446631,184.583499 C123.768301,195.815615 134.755448,203.039516 145.987682,200.718416 C146.121832,200.690694 146.255704,200.661646 146.389249,200.631139 Z" id="Path-2" transform="translate(210.486856, 162.873907) rotate(-41.000000) translate(-210.486856, -162.873907) "></path>
                        <path d="M-4.01836703,475.615275 C15.0758992,471.279096 36.448807,469.109546 60.1003564,469.106623 C83.694819,469.103708 105.117767,471.257523 124.369199,475.568068 C135.561698,478.073771 146.666082,471.031412 149.171462,459.838841 C149.226444,459.593216 149.276955,459.346612 149.32372,459.09929 L155.70887,424.724258 C157.804086,413.447705 150.360405,402.60825 139.08371,400.5138 C138.867336,400.473612 138.650338,400.436867 138.43286,400.403164 C112.114865,396.379325 86.007111,394.369004 60.109597,394.372202 C33.6517162,394.375474 6.97373616,397.633803 -19.9243431,404.147189 C-30.8080819,406.783526 -37.6417861,417.574289 -35.3725407,428.540445 L-28.9529774,459.572477 C-26.6280587,470.803921 -15.6387045,478.024465 -4.40718055,475.699933 C-4.27728829,475.67305 -4.14765658,475.644923 -4.01836703,475.615275 Z" id="Path-2" transform="translate(60.108069, 437.873527) rotate(-80.000000) translate(-60.108069, -437.873527) "></path>
                    </g>
                    <g id="Group-8" transform="translate(885.584154, 432.872483) scale(-1, 1) translate(-885.584154, -432.872483) translate(714.168307, 36.035504)" fill="#FFFFFF">
                        <path d="M175.156401,135.821788 C194.239368,131.482355 215.598054,129.308409 239.232459,129.299951 C262.816091,129.29151 284.228851,131.440851 303.470737,135.747972 C314.663493,138.252528 325.767014,131.208809 328.271024,120.015932 C328.325891,119.770681 328.376301,119.524454 328.421635,119.277263 L334.815862,84.8684498 C336.91003,73.5917022 329.465419,62.7528867 318.188543,60.6594055 C317.970599,60.6189455 317.752021,60.5819776 317.532872,60.5486568 C291.23206,56.5312081 265.140841,54.5271069 239.259213,54.536353 C212.807642,54.5458371 186.135292,57.8126796 159.242166,64.3368806 C148.368078,66.9755243 141.539665,77.7551848 143.801064,88.7139391 L150.214349,119.774148 C152.536107,131.006246 163.523248,138.230158 174.755484,135.909069 C174.889427,135.881391 175.023094,135.852389 175.156401,135.821788 Z" id="Path-2" transform="translate(239.254942, 98.064556) rotate(-41.000000) translate(-239.254942, -98.064556) "></path>
                        <path d="M-4.01836703,410.806537 C15.0758992,406.470358 36.448807,404.300807 60.1003564,404.297885 C83.694819,404.294969 105.117767,406.448785 124.369199,410.75933 C135.561698,413.265033 146.666082,406.222674 149.171462,395.030103 C149.226444,394.784478 149.276955,394.537873 149.32372,394.290551 L155.70887,359.91552 C157.804086,348.638967 150.360405,337.799512 139.08371,335.705062 C138.867336,335.664874 138.650338,335.628128 138.43286,335.594426 C112.114865,331.570587 86.007111,329.560266 60.109597,329.563464 C33.6517162,329.566735 6.97373616,332.825064 -19.9243431,339.338451 C-30.8080819,341.974788 -37.6417861,352.765551 -35.3725407,363.731707 L-28.9529774,394.763738 C-26.6280587,405.995182 -15.6387045,413.215726 -4.40718055,410.891195 C-4.27728829,410.864312 -4.14765658,410.836185 -4.01836703,410.806537 Z" id="Path-2" transform="translate(60.108069, 373.064789) rotate(-80.000000) translate(-60.108069, -373.064789) "></path>
                        <path d="M42.690678,723.526205 C61.7818925,719.196552 83.1529207,717.035427 106.803763,717.042828 C130.388132,717.050208 151.803441,719.212554 171.049688,723.529866 C182.241212,726.039918 193.348001,719.001352 195.857204,707.809638 C195.913461,707.55872 195.965051,707.30678 196.012085,707.053972 L202.381209,672.676261 C204.470764,661.398657 197.022457,650.562381 185.744868,648.472745 C185.534181,648.433707 185.322903,648.397931 185.111131,648.365287 C158.789697,644.327552 132.679441,642.304628 106.780365,642.296515 C80.3341837,642.288248 53.669484,645.533613 26.7862654,652.032609 C15.8963135,654.663393 9.05654717,665.458061 11.3283106,676.428529 L17.7640488,707.485874 C20.0904182,718.717017 31.0811766,725.935424 42.3122483,723.608708 C42.438674,723.582517 42.5648528,723.555147 42.690678,723.526205 Z" id="Path-2" transform="translate(106.784233, 685.812848) rotate(-120.000000) translate(-106.784233, -685.812848) "></path>
                    </g>
                    <g id="Group-8" transform="translate(415.596369, 808.731908) scale(1, -1) rotate(25.000000) translate(-415.596369, -808.731908) translate(123.238270, 533.288826)" fill="#FFFFFF">
                        <path d="M421.292284,81.2877505 C440.367764,76.9537991 461.71903,74.7868234 485.346082,74.7868234 C508.913707,74.7868234 530.313501,76.9429121 549.545464,81.2550895 C560.737226,83.7640823 571.843712,76.7250385 574.352434,65.533216 C574.408931,65.2811738 574.460721,65.0280996 574.507437,64.7740625 L580.887366,30.3568301 C582.977529,19.0793394 575.529566,8.24282681 564.252044,6.15283311 C564.039995,6.1135354 563.827346,6.0775431 563.6142,6.04471803 C537.314491,2.01490601 511.225118,-1.04345027e-13 485.346082,-1.04345027e-13 C458.908743,-1.04345027e-13 432.251894,3.25682074 405.375536,9.77046221 C394.4966,12.4071375 387.664834,23.1916234 389.929623,34.1540157 L396.355791,65.243772 C398.679907,76.475382 409.668667,83.6968298 420.900383,81.373222 C421.031319,81.346134 421.161991,81.3177821 421.292284,81.2877505 Z" id="Path-2"></path>
                        <path d="M139.498711,205.650768 C158.581678,201.311335 179.940364,199.137389 203.574769,199.12893 C227.158402,199.12049 248.571162,201.26983 267.813048,205.576952 C279.005803,208.081508 290.109325,201.037789 292.613335,189.844911 C292.668201,189.59966 292.718611,189.353434 292.763946,189.106243 L299.158173,154.69743 C301.252341,143.420682 293.807729,132.581866 282.530854,130.488385 C282.31291,130.447925 282.094332,130.410957 281.875183,130.377636 C255.574371,126.360188 229.483151,124.356087 203.601524,124.365333 C177.149952,124.374817 150.477145,127.641659 123.583104,134.16586 C112.708718,136.804114 105.880175,147.584015 108.141825,158.542919 L114.556021,189.603128 C116.877678,200.835246 127.864827,208.059146 139.09706,205.738044 C139.231237,205.710317 139.365136,205.681263 139.498711,205.650768 Z" id="Path-2" transform="translate(203.596198, 167.893536) rotate(-41.000000) translate(-203.596198, -167.893536) "></path>
                        <path d="M-4.01836703,483.144599 C15.0758992,478.80842 36.448807,476.63887 60.1003564,476.635947 C83.694819,476.633032 105.117767,478.786847 124.369199,483.097392 C135.561698,485.603095 146.666082,478.560736 149.171462,467.368165 C149.226444,467.12254 149.276955,466.875936 149.32372,466.628614 L155.70887,432.253582 C157.804086,420.977029 150.360405,410.137574 139.08371,408.043124 C138.867336,408.002936 138.650338,407.966191 138.43286,407.932488 C112.114865,403.908649 86.007111,401.898328 60.109597,401.901526 C33.6517162,401.904798 6.97373616,405.163126 -19.9243431,411.676513 C-30.8080819,414.31285 -37.6417861,425.103613 -35.3725407,436.069769 L-28.9529774,467.101801 C-26.6280587,478.333244 -15.6387045,485.553789 -4.40718055,483.229257 C-4.27728829,483.202374 -4.14765658,483.174247 -4.01836703,483.144599 Z" id="Path-2" transform="translate(60.108069, 445.402851) rotate(-80.000000) translate(-60.108069, -445.402851) "></path>
                    </g>
                </g>
                <g id="Group-6" transform="translate(357.241635, 408.686266)">
                    <ellipse id="Oval" fill="#1A2C38" cx="308.936659" cy="29.8230518" rx="29.897096" ry="29.8230518"></ellipse>
                    <ellipse id="Oval" fill="#1A2C38" cx="29.897096" cy="29.8230518" rx="29.897096" ry="29.8230518"></ellipse>
                    <g id="Oval" transform="translate(79.725589, 132.546897)">
                        <mask id="mask-7" fill="white">
                            <use xlink:href="#path-6"></use>
                        </mask>
                        <use id="Mask" fill="#1A2C38" xlink:href="#path-6"></use>
                        <ellipse fill="#DC4F58" mask="url(#mask-7)" cx="65.4660719" cy="149.993072" rx="135.963812" ry="135.448895"></ellipse>
                    </g>
                </g>
            </g>
        </g>
    </g>
</svg>