<?xml version="1.0" encoding="UTF-8"?>
<svg width="171px" height="171px" viewBox="0 0 171 171" version="1.1" xmlns="http://www.w3.org/2000/svg" xmlns:xlink="http://www.w3.org/1999/xlink">
    <title>Solana_Icon</title>
    <defs>
        <linearGradient x1="21.5656511%" y1="81.0376492%" x2="78.6243294%" y2="50%" id="linearGradient-1">
            <stop stop-color="#B056FF" offset="0%"></stop>
            <stop stop-color="#1CEEC7" offset="100%"></stop>
        </linearGradient>
    </defs>
    <g id="Page-1" stroke="none" stroke-width="1" fill="none" fill-rule="evenodd">
        <g id="Solana_Icon" transform="translate(1.149469, 0.851906)" fill-rule="nonzero">
            <path d="M84.3505314,0.148094209 C37.6824357,0.148094209 -0.149468574,37.9799985 -0.149468574,84.6480942 C-0.149468574,131.31619 37.6824357,169.148094 84.3505314,169.148094 C131.018627,169.148094 168.850531,131.31619 168.850531,84.6480942 C168.850531,37.9799985 131.018627,0.148094209 84.3505314,0.148094209 Z" id="Path" stroke="#283345" fill="#000000"></path>
            <g id="sol-circle-solid-default" transform="translate(34.850531, 45.148094)" fill="url(#linearGradient-1)">
                <path d="M98.525016,61.358844 L82.9177468,77.0488185 C82.3098926,77.6585308 81.4860906,78.000657 80.6274133,77.9999987 L1.62015075,77.9999987 C0.965069791,78.0008191 0.374129183,77.604487 0.123329945,76.9961095 C-0.127469293,76.387732 0.011362744,75.6873595 0.474984034,75.2221036 L16.0825833,59.5321291 C16.6904105,58.9226197 17.514071,58.5806222 18.3725867,58.5812809 L97.3798493,58.5812809 C98.034785,58.5805951 98.6255438,58.9768749 98.876313,59.5851067 C99.1270821,60.1933386 98.9884007,60.8935567 98.525016,61.358844 L98.525016,61.358844 Z M97.3798493,48.5217442 L18.3725867,48.5217442 C17.5139166,48.5223661 16.6901279,48.1802454 16.0822532,47.570564 L0.474984034,31.8805895 C0.0115993432,31.4153022 -0.127082148,30.7150841 0.123687003,30.1068522 C0.374456154,29.4986204 0.965214985,29.1023405 1.62015075,29.1030262 L80.6274133,29.1030262 C81.4860433,29.1022798 82.3098386,29.4442839 82.9177468,30.0538746 L98.525016,45.7438491 C98.9886373,46.209105 99.1274693,46.9094775 98.8766701,47.517855 C98.6258708,48.1262325 98.0349302,48.5225646 97.3798493,48.5217442 L97.3798493,48.5217442 Z M98.525016,2.77756464 L82.9177468,18.4678709 C82.3098386,19.0774616 81.4860433,19.4194657 80.6274133,19.4187193 L1.62015075,19.4187193 C0.965214985,19.4194049 0.374456154,19.0231251 0.123687003,18.4148933 C-0.127082148,17.8066614 0.0115993432,17.1064433 0.474984034,16.641156 L16.0825833,0.951181537 C16.6956949,0.349648089 17.5159278,0.00895503644 18.3725867,1.27121476e-06 L97.3798493,1.27121476e-06 C98.0349302,-0.000819123125 98.6258708,0.395512991 98.8766701,1.00389049 C99.1274693,1.61226799 98.9886373,2.3126405 98.525016,2.7778964 L98.525016,2.77756464 Z" id="Shape"></path>
            </g>
        </g>
    </g>
</svg>