<?xml version="1.0" encoding="UTF-8"?>
<svg width="1200px" height="1200px" viewBox="0 0 1200 1200" version="1.1" xmlns="http://www.w3.org/2000/svg" xmlns:xlink="http://www.w3.org/1999/xlink">
    <title>Tails_Coin</title>
    <defs>
        <linearGradient x1="20.6419606%" y1="5.77019958%" x2="72.9621121%" y2="93.7836171%" id="linearGradient-1">
            <stop stop-color="#635AFF" offset="0%"></stop>
            <stop stop-color="#463DE5" offset="100%"></stop>
        </linearGradient>
        <path d="M527.8451,895.422072 C736.373101,895.422072 905.418445,726.137194 905.418445,517.313714 C905.418445,308.490235 736.373101,139.205357 527.8451,139.205357 C319.3171,139.205357 150.271756,308.490235 150.271756,517.313714 C150.271756,726.137194 319.3171,895.422072 527.8451,895.422072 Z" id="path-2"></path>
        <mask id="mask-3" maskContentUnits="userSpaceOnUse" maskUnits="objectBoundingBox" x="0" y="0" width="755.14669" height="756.216715" fill="white">
            <use xlink:href="#path-2"></use>
        </mask>
    </defs>
    <g id="Tails_Coin" stroke="none" stroke-width="1" fill="none" fill-rule="evenodd">
        <g id="Tails_Token" transform="translate(72.000000, 72.000000)">
            <g id="Group-9">
                <ellipse id="Oval" fill="url(#linearGradient-1)" cx="535.822002" cy="519.976449" rx="502.544804" ry="503.256899"></ellipse>
                <use id="Oval" stroke="#827BFE" mask="url(#mask-3)" stroke-width="53.3804026" stroke-dasharray="42.70432092412093,42.70432092412093" xlink:href="#path-2"></use>
                <g id="Group-8" transform="translate(0.000000, 0.000000)" fill="#FFFFFF">
                    <path d="M453.351344,83.4163053 C472.901902,78.9764123 494.782261,76.7564657 518.992422,76.7564657 C543.141632,76.7564657 565.071569,78.9652488 584.782233,83.382815 C596.289283,85.9616181 607.70788,78.7234615 610.286297,67.2163254 C610.343975,66.9589163 610.396878,66.7004604 610.445768,66.4412372 L616.974824,31.1950945 C619.124128,19.6001426 611.467592,8.45775873 599.87277,6.30775354 C599.654471,6.26727485 599.435554,6.23020343 599.216147,6.19624323 C572.259446,2.06541441 545.518204,0 518.992422,0 C491.891977,0 464.566637,3.33905368 437.0164,10.017161 C425.831852,12.7300795 418.809292,23.8188728 421.138317,35.0896174 L427.712385,66.9169618 C430.100314,78.465131 441.397316,85.8916389 452.945626,83.5043906 C453.081154,83.4763744 453.216407,83.4470413 453.351344,83.4163053 Z" id="Path-2"></path>
                    <path d="M150.176308,205.902428 C169.7419,201.451522 191.637159,199.217577 215.862085,199.200591 C240.043353,199.183636 261.999258,201.378845 281.7298,205.786219 C293.238812,208.356251 304.651794,201.109243 307.221288,189.600111 C307.276412,189.353202 307.327144,189.105333 307.373025,188.856541 L313.928953,153.636969 C316.086488,142.043546 308.436761,130.896486 296.843254,128.739397 C296.614427,128.696822 296.38492,128.65799 296.154873,128.622588 C269.194547,124.516156 242.448209,122.472209 215.91586,122.490746 C188.78862,122.509834 161.433834,125.868601 133.851504,132.567046 C122.673731,135.28121 115.654957,146.362112 117.977492,157.627773 L124.525836,189.395053 C126.908123,200.944387 138.201671,208.376147 149.751089,205.994268 C149.893111,205.964979 150.03483,205.934243 150.176308,205.902428 Z" id="Path-2" transform="translate(215.906970, 167.166948) rotate(-41.000000) translate(-215.906970, -167.166948) "></path>
                    <path d="M-4.12609188,488.107402 C15.4624181,483.662907 37.3865263,481.437724 61.6462328,481.431854 C85.8496286,481.425997 107.826305,483.630263 127.576261,488.044652 C139.084643,490.617504 150.49997,483.374192 153.073191,471.865892 C153.129413,471.614449 153.181079,471.362009 153.227755,471.10862 L159.765312,435.957654 C161.920578,424.363809 154.268617,413.218282 142.674679,411.063516 C142.447965,411.02138 142.220584,410.982921 141.992601,410.948307 C115.001438,406.830154 88.2255066,404.774287 61.6648059,404.780706 C34.5230084,404.787282 7.15512927,408.129391 -20.4388315,414.807033 C-31.628445,417.515648 -38.6560254,428.607657 -36.3248082,439.881941 L-29.7605935,471.609949 C-27.3718009,483.15794 -16.073743,490.582841 -4.52577258,488.193951 C-4.39228152,488.166336 -4.25905796,488.137443 -4.12609188,488.107402 Z" id="Path-2" transform="translate(61.661735, 449.402857) rotate(-80.000000) translate(-61.661735, -449.402857) "></path>
                </g>
                <g id="Group-8" transform="translate(887.943378, 454.441811) scale(-1, 1) translate(-887.943378, -454.441811) translate(718.886756, 50.557049)" fill="#FFFFFF">
                    <path d="M166.130111,139.36897 C185.695703,134.918064 207.590962,132.684119 231.815888,132.667133 C255.997156,132.650178 277.953061,134.845387 297.683603,139.252761 C309.192615,141.822793 320.605597,134.575785 323.175091,123.066653 C323.230215,122.819744 323.280947,122.571875 323.326828,122.323083 L329.882757,87.1035113 C332.040291,75.510088 324.390564,64.3630282 312.797058,62.2059391 C312.568231,62.1633635 312.338723,62.1245323 312.108677,62.0891299 C285.14835,57.9826978 258.402013,55.9387504 231.869664,55.9572879 C204.742423,55.9763762 177.387638,59.335143 149.805307,66.0335881 C138.627535,68.7477519 131.60876,79.8286537 133.931296,91.0943145 L140.479639,122.861595 C142.861926,134.410929 154.155474,141.842689 165.704893,139.46081 C165.846914,139.431521 165.988633,139.400785 166.130111,139.36897 Z" id="Path-2" transform="translate(231.860773, 100.633489) rotate(-41.000000) translate(-231.860773, -100.633489) "></path>
                    <path d="M-4.12609188,421.573944 C15.4624181,417.129449 37.3865263,414.904266 61.6462328,414.898395 C85.8496286,414.892539 107.826305,417.096805 127.576261,421.511194 C139.084643,424.084046 150.49997,416.840733 153.073191,405.332434 C153.129413,405.080991 153.181079,404.828551 153.227755,404.575162 L159.765312,369.424196 C161.920578,357.830351 154.268617,346.684824 142.674679,344.530058 C142.447965,344.487922 142.220584,344.449462 141.992601,344.414849 C115.001438,340.296696 88.2255066,338.240829 61.6648059,338.247248 C34.5230084,338.253824 7.15512927,341.595933 -20.4388315,348.273575 C-31.628445,350.98219 -38.6560254,362.074199 -36.3248082,373.348483 L-29.7605935,405.076491 C-27.3718009,416.624482 -16.073743,424.049383 -4.52577258,421.660493 C-4.39228152,421.632878 -4.25905796,421.603985 -4.12609188,421.573944 Z" id="Path-2" transform="translate(61.661735, 382.869399) rotate(-80.000000) translate(-61.661735, -382.869399) "></path>
                    <path d="M43.8233361,735.728884 C63.4055472,731.297607 85.325657,729.089403 109.583665,729.104271 C133.766675,729.119093 155.727912,731.340477 175.467376,735.768423 C186.974016,738.349054 198.393788,731.112751 200.974073,719.606033 C201.032785,719.344206 201.086557,719.081296 201.135046,718.817384 L207.64049,683.66105 C209.785225,672.065252 202.123161,660.926668 190.527274,658.782416 C190.314404,658.743053 190.100948,658.70693 189.887001,658.673921 C162.886391,654.527089 136.102936,652.445515 109.536637,652.4292 C82.4168496,652.412611 55.0741287,655.729056 27.508474,662.378534 C16.3045143,665.082858 9.26837701,676.190617 11.6112676,687.475694 L18.2062078,719.246249 C20.6052204,730.792121 31.909451,738.207621 43.4554301,735.809125 C43.5783282,735.783595 43.7009988,735.756982 43.8233361,735.728884 Z" id="Path-2" transform="translate(109.544412, 697.081527) rotate(-120.000000) translate(-109.544412, -697.081527) "></path>
                </g>
                <g id="Group-8" transform="translate(419.476356, 830.035314) scale(1, -1) rotate(25.000000) translate(-419.476356, -830.035314) translate(119.622592, 547.340747)" fill="#FFFFFF">
                    <path d="M432.149919,83.4163053 C451.700477,78.9764123 473.580837,76.7564657 497.790997,76.7564657 C521.940207,76.7564657 543.870145,78.9652488 563.580808,83.382815 C575.087858,85.9616181 586.506455,78.7234615 589.084873,67.2163254 C589.142551,66.9589163 589.195453,66.7004604 589.244343,66.4412372 L595.773399,31.1950945 C597.922703,19.6001426 590.266167,8.45775873 578.671345,6.30775354 C578.453046,6.26727485 578.234129,6.23020343 578.014722,6.19624323 C551.058021,2.06541441 524.316779,-1.3932617e-13 497.790997,-1.3932617e-13 C470.690552,-1.3932617e-13 443.365212,3.33905368 415.814975,10.017161 C404.630427,12.7300795 397.607868,23.8188728 399.936892,35.0896174 L406.51096,66.9169618 C408.898889,78.465131 420.195891,85.8916389 431.744201,83.5043906 C431.879729,83.4763744 432.014982,83.4470413 432.149919,83.4163053 Z" id="Path-2"></path>
                    <path d="M143.109166,211.054176 C162.674759,206.60327 184.570018,204.369325 208.794943,204.352339 C232.976211,204.335384 254.932116,206.530593 274.662659,210.937967 C286.17167,213.507999 297.584652,206.260991 300.154146,194.751859 C300.20927,194.50495 300.260002,194.257081 300.305883,194.008289 L306.861812,158.788717 C309.019346,147.195294 301.369619,136.048234 289.776113,133.891145 C289.547286,133.84857 289.317778,133.809738 289.087732,133.774336 C262.127405,129.667904 235.381068,127.623957 208.848719,127.642494 C181.721478,127.661582 154.366693,131.020349 126.784362,137.718794 C115.60659,140.432958 108.587815,151.51386 110.910351,162.779521 L117.458694,194.546801 C119.840981,206.096135 131.134529,213.527895 142.683948,211.146016 C142.825969,211.116727 142.967689,211.085991 143.109166,211.054176 Z" id="Path-2" transform="translate(208.839828, 172.318696) rotate(-41.000000) translate(-208.839828, -172.318696) "></path>
                    <path d="M-4.12609188,495.835024 C15.4624181,491.390529 37.3865263,489.165346 61.6462328,489.159476 C85.8496286,489.153619 107.826305,491.357885 127.576261,495.772274 C139.084643,498.345126 150.49997,491.101814 153.073191,479.593514 C153.129413,479.342071 153.181079,479.089631 153.227755,478.836242 L159.765312,443.685276 C161.920578,432.091431 154.268617,420.945904 142.674679,418.791138 C142.447965,418.749002 142.220584,418.710542 141.992601,418.675929 C115.001438,414.557776 88.2255066,412.501909 61.6648059,412.508328 C34.5230084,412.514904 7.15512927,415.857013 -20.4388315,422.534655 C-31.628445,425.24327 -38.6560254,436.335279 -36.3248082,447.609563 L-29.7605935,479.337571 C-27.3718009,490.885562 -16.073743,498.310463 -4.52577258,495.921573 C-4.39228152,495.893958 -4.25905796,495.865065 -4.12609188,495.835024 Z" id="Path-2" transform="translate(61.661735, 457.130479) rotate(-80.000000) translate(-61.661735, -457.130479) "></path>
                </g>
            </g>
            <path d="M528.159859,360.706665 L691.135746,614.511577 L365.183972,614.511577 L528.159859,360.706665 Z" id="Triangle" stroke="#FFFFFF" stroke-width="47.5531452"></path>
        </g>
    </g>
</svg>